<svg viewBox="0 0 160 160" width="160" height="160" xmlns="http://www.w3.org/2000/svg">
  <rect width="160" height="160" rx="12" fill="#121212" stroke="#00ff88" stroke-width="2"/>
  <rect x="0" y="0" width="160" height="32" rx="12" fill="#00ff88" opacity="0.15"/>
  <path fill="#00ff88" d="M84.96 27.20L84.96 27.20Q84.28 27.20 83.82 26.93Q83.37 26.66 83.09 26.22L83.09 26.22Q82.81 25.79 82.69 25.25Q82.57 24.71 82.57 24.15L82.57 24.15L82.57 23.82Q82.57 23.28 82.69 22.74Q82.81 22.20 83.09 21.76L83.09 21.76Q83.38 21.33 83.83 21.06Q84.29 20.79 84.96 20.79L84.96 20.79Q85.40 20.79 85.78 20.94Q86.16 21.09 86.43 21.35L86.43 21.35Q86.70 21.61 86.86 21.95Q87.02 22.29 87.03 22.67L87.03 22.67L88.40 22.67Q88.40 22.03 88.14 21.46Q87.88 20.90 87.43 20.49L87.43 20.49Q86.97 20.08 86.34 19.84Q85.71 19.61 84.96 19.61L84.96 19.61Q84 19.61 83.28 19.95Q82.56 20.29 82.09 20.87L82.09 20.87Q81.60 21.46 81.36 22.22Q81.12 22.99 81.12 23.82L81.12 23.82L81.12 24.15Q81.12 25.00 81.36 25.76Q81.60 26.52 82.09 27.10L82.09 27.10Q82.56 27.68 83.28 28.03Q84 28.37 84.96 28.37L84.96 28.37Q85.63 28.37 86.25 28.14Q86.87 27.91 87.34 27.52L87.34 27.52Q87.82 27.14 88.11 26.63Q88.39 26.11 88.40 25.55L88.40 25.55L87.03 25.55Q87.02 25.90 86.85 26.20Q86.67 26.50 86.38 26.72L86.38 26.72Q86.09 26.95 85.72 27.07Q85.35 27.20 84.96 27.20ZM95.51 16.21L91.19 16.21L91.19 17.47L94.06 17.47L94.06 26.96L91.19 26.96L91.19 28.21L98.27 28.21L98.27 26.96L95.51 26.96L95.51 16.21ZM103.08 27.28L103.08 27.28Q103.08 27.73 103.36 28.05Q103.65 28.36 104.21 28.36L104.21 28.36Q104.77 28.36 105.06 28.05Q105.36 27.74 105.36 27.28L105.36 27.28Q105.36 26.81 105.07 26.48Q104.77 26.16 104.21 26.16L104.21 26.16Q103.64 26.16 103.36 26.49Q103.08 26.82 103.08 27.28ZM110.87 20.56L110.83 19.76L109.53 19.76L109.53 28.21L110.91 28.21L110.91 21.49Q110.95 21.36 111.03 21.25Q111.10 21.14 111.20 21.06L111.20 21.06Q111.34 20.95 111.53 20.89Q111.72 20.83 111.98 20.83L111.98 20.83Q112.21 20.83 112.39 20.89Q112.56 20.95 112.68 21.07L112.68 21.07Q112.80 21.21 112.86 21.41Q112.92 21.61 112.92 21.88L112.92 21.88L112.92 28.21L114.30 28.21L114.30 21.89Q114.30 21.84 114.30 21.80Q114.30 21.77 114.30 21.73L114.30 21.73Q114.32 21.54 114.39 21.38Q114.46 21.21 114.59 21.09L114.59 21.09Q114.71 20.97 114.90 20.90Q115.09 20.83 115.34 20.83L115.34 20.83Q115.59 20.83 115.77 20.89Q115.95 20.96 116.08 21.08L116.08 21.08Q116.20 21.21 116.26 21.42Q116.32 21.62 116.32 21.89L116.32 21.89L116.32 28.21L117.70 28.21L117.70 21.90Q117.70 21.29 117.55 20.84Q117.41 20.39 117.15 20.11L117.15 20.11Q116.91 19.86 116.55 19.73Q116.20 19.61 115.77 19.61L115.77 19.61Q115.45 19.61 115.18 19.69Q114.91 19.77 114.69 19.90L114.69 19.90Q114.52 20.02 114.37 20.18Q114.22 20.33 114.11 20.51L114.11 20.51Q114.02 20.32 113.90 20.16Q113.78 20.00 113.63 19.89L113.63 19.89Q113.43 19.75 113.16 19.68Q112.89 19.61 112.55 19.61L112.55 19.61Q111.96 19.61 111.54 19.86Q111.13 20.11 110.87 20.56L110.87 20.56Z"/>
  <path fill="#ffffff" d="M87.00 88.76L87.00 88.76Q88.70 88.76 89.86 88.08Q91.01 87.40 91.59 86.52L91.59 86.52L90.38 85.57Q89.83 86.28 89.00 86.71Q88.17 87.14 87.11 87.14L87.11 87.14Q86.31 87.14 85.64 86.84Q84.97 86.54 84.50 86.01L84.50 86.01Q84.04 85.52 83.78 84.87Q83.51 84.23 83.44 83.38L83.44 83.38L83.44 83.30L91.74 83.30L91.74 82.41Q91.74 81.20 91.44 80.16Q91.13 79.11 90.51 78.34L90.51 78.34Q89.88 77.58 88.94 77.14Q88.00 76.71 86.75 76.71L86.75 76.71Q85.75 76.71 84.80 77.12Q83.85 77.52 83.10 78.29L83.10 78.29Q82.35 79.06 81.90 80.17Q81.45 81.28 81.45 82.69L81.45 82.69L81.45 83.14Q81.45 84.36 81.86 85.39Q82.27 86.42 83.00 87.17L83.00 87.17Q83.73 87.92 84.75 88.34Q85.78 88.76 87.00 88.76ZM86.75 78.34L86.75 78.34Q87.51 78.34 88.06 78.62Q88.62 78.90 88.98 79.35L88.98 79.35Q89.35 79.80 89.55 80.42Q89.75 81.04 89.75 81.57L89.75 81.57L89.75 81.67L83.50 81.67Q83.62 80.86 83.92 80.25Q84.21 79.63 84.64 79.20L84.64 79.20Q85.07 78.78 85.61 78.56Q86.14 78.34 86.75 78.34ZM99.99 77.19L100.22 73.24L100.22 72.05L98.52 72.05L98.52 73.41L98.51 77.19L99.99 77.19ZM113.23 87.15L113.23 87.15Q112.29 87.15 111.66 86.78Q111.03 86.41 110.66 85.81L110.66 85.81Q110.27 85.22 110.10 84.47Q109.94 83.72 109.94 82.96L109.94 82.96L109.94 82.51Q109.94 81.76 110.10 81.02Q110.27 80.27 110.66 79.67L110.66 79.67Q111.04 79.08 111.67 78.71Q112.30 78.34 113.23 78.34L113.23 78.34Q113.83 78.34 114.35 78.54Q114.87 78.75 115.25 79.10L115.25 79.10Q115.62 79.46 115.84 79.92Q116.06 80.39 116.07 80.92L116.07 80.92L117.95 80.92Q117.95 80.04 117.60 79.26Q117.24 78.49 116.62 77.92L116.62 77.92Q115.99 77.36 115.12 77.04Q114.26 76.71 113.23 76.71L113.23 76.71Q111.90 76.71 110.92 77.18Q109.93 77.65 109.27 78.45L109.27 78.45Q108.61 79.25 108.27 80.31Q107.94 81.36 107.94 82.51L107.94 82.51L107.94 82.96Q107.94 84.12 108.27 85.17Q108.61 86.21 109.27 87.01L109.27 87.01Q109.93 87.81 110.92 88.29Q111.90 88.76 113.23 88.76L113.23 88.76Q114.15 88.76 115.00 88.44Q115.85 88.13 116.50 87.59L116.50 87.59Q117.16 87.06 117.55 86.36Q117.94 85.66 117.95 84.88L117.95 84.88L116.07 84.88Q116.06 85.37 115.82 85.78Q115.58 86.19 115.18 86.49L115.18 86.49Q114.78 86.81 114.27 86.98Q113.76 87.15 113.23 87.15ZM126.40 77.19L126.62 73.24L126.62 72.05L124.92 72.05L124.92 73.41L124.91 77.19L126.40 77.19ZM139.60 77.19L139.82 73.24L139.82 72.05L138.13 72.05L138.13 73.41L138.12 77.19L139.60 77.19ZM150.84 78.46L150.84 88.55L152.84 88.55L152.84 78.46L157.32 78.46L157.32 76.92L152.84 76.92L152.84 76.11Q152.84 75.38 153.03 74.83Q153.22 74.28 153.58 73.94L153.58 73.94Q153.93 73.60 154.45 73.44Q154.97 73.27 155.65 73.27L155.65 73.27Q156.31 73.27 156.90 73.38Q157.48 73.50 157.92 73.65L157.92 73.65L158.16 72.00Q157.88 71.93 157.61 71.87Q157.34 71.81 157.08 71.76L157.08 71.76Q156.67 71.68 156.25 71.63Q155.83 71.58 155.40 71.58L155.40 71.58Q154.37 71.58 153.53 71.87Q152.69 72.16 152.10 72.73L152.10 72.73Q151.50 73.30 151.17 74.15Q150.84 74.99 150.84 76.11L150.84 76.11L150.84 76.92L147.64 76.92L147.64 78.46L150.84 78.46ZM167.33 76.92L161.39 76.92L161.39 78.65L165.35 78.65L165.35 86.83L161.39 86.83L161.39 88.55L171.13 88.55L171.13 86.83L167.33 86.83L167.33 76.92ZM165.09 73.87L165.09 73.87Q165.09 74.35 165.38 74.68Q165.68 75.00 166.28 75.00L166.28 75.00Q166.87 75.00 167.17 74.68Q167.47 74.35 167.47 73.87L167.47 73.87Q167.47 73.60 167.39 73.38Q167.30 73.15 167.13 73.00L167.13 73.00Q166.99 72.86 166.78 72.78Q166.56 72.70 166.28 72.70L166.28 72.70Q166.00 72.70 165.78 72.78Q165.56 72.86 165.42 73.00L165.42 73.00Q165.25 73.16 165.17 73.39Q165.09 73.61 165.09 73.87ZM182.01 85.46L182.01 85.46Q182.01 85.74 181.90 85.99Q181.79 86.24 181.59 86.44L181.59 86.44Q181.26 86.77 180.67 86.96Q180.07 87.15 179.28 87.15L179.28 87.15Q178.77 87.15 178.26 87.04Q177.74 86.93 177.32 86.68L177.32 86.68Q176.89 86.42 176.61 86.00Q176.33 85.58 176.28 84.97L176.28 84.97L174.29 84.97Q174.29 85.71 174.63 86.40Q174.97 87.08 175.62 87.60L175.62 87.60Q176.25 88.13 177.17 88.44Q178.10 88.76 179.28 88.76L179.28 88.76Q180.31 88.76 181.18 88.51Q182.05 88.27 182.67 87.81L182.67 87.81Q183.30 87.36 183.65 86.73Q184.00 86.10 184.00 85.32L184.00 85.32Q184.00 84.60 183.69 84.06Q183.38 83.51 182.80 83.09L182.80 83.09Q182.22 82.68 181.37 82.38Q180.53 82.09 179.45 81.86L179.45 81.86Q178.63 81.70 178.10 81.53Q177.57 81.36 177.26 81.14L177.26 81.14Q176.94 80.93 176.81 80.66Q176.68 80.39 176.68 80.05L176.68 80.05Q176.68 79.72 176.84 79.40Q177.00 79.09 177.32 78.86L177.32 78.86Q177.64 78.62 178.11 78.48Q178.59 78.34 179.23 78.34L179.23 78.34Q179.84 78.34 180.33 78.51Q180.82 78.68 181.16 78.96L181.16 78.96Q181.50 79.24 181.70 79.60Q181.89 79.96 181.89 80.34L181.89 80.34L183.88 80.34Q183.88 79.58 183.55 78.92Q183.22 78.25 182.62 77.76L182.62 77.76Q182.02 77.27 181.16 76.99Q180.30 76.71 179.23 76.71L179.23 76.71Q178.23 76.71 177.39 76.98Q176.56 77.24 175.96 77.71L175.96 77.71Q175.36 78.17 175.03 78.79Q174.69 79.40 174.69 80.11L174.69 80.11Q174.69 80.83 175.01 81.38Q175.34 81.92 175.93 82.31L175.93 82.31Q176.51 82.72 177.33 83.01Q178.15 83.30 179.15 83.51L179.15 83.51Q179.97 83.67 180.51 83.87Q181.06 84.07 181.40 84.30L181.40 84.30Q181.73 84.54 181.87 84.82Q182.01 85.11 182.01 85.46ZM192.41 77.19L192.63 73.24L192.63 72.05L190.93 72.05L190.93 73.41L190.92 77.19L192.41 77.19ZM205.61 77.19L205.83 73.24L205.83 72.05L204.14 72.05L204.14 73.41L204.13 77.19L205.61 77.19ZM218.81 77.19L219.04 73.24L219.04 72.05L217.34 72.05L217.34 73.41L217.33 77.19L218.81 77.19Z"/>
  <circle cx="20" cy="130" r="5" fill="none" stroke="#666666" stroke-width="2"/>
  <circle cx="40" cy="130" r="5" fill="none" stroke="#666666" stroke-width="2"/>
  <circle cx="60" cy="130" r="5" fill="none" stroke="#666666" stroke-width="2"/>
  <line x1="76" y1="126" x2="84" y2="134" stroke="#ff4444" stroke-width="2"/>
  <line x1="84" y1="126" x2="76" y2="134" stroke="#ff4444" stroke-width="2"/>
  <circle cx="100" cy="130" r="5" fill="none" stroke="#666666" stroke-width="2"/>
  <circle cx="120" cy="130" r="5" fill="none" stroke="#666666" stroke-width="2"/>
  <circle cx="140" cy="130" r="5" fill="#00ff88"/>
</svg>